# xmcd
#
# Track frame offsets: 
#        150
#        14357
#        31502
#        47245
#        63507
#        80185
#        92270
#        109380
#        121777
#        141050
#
# Disc length: 2082 seconds
#
# Revision: 4
# Processed by: cddbd v1.5.1PL0 Copyright (c) Steve Scherf et al.
# Submitted via: ExactAudioCopy v0.95a5
#
DISCID=7b08200a
DTITLE=Joe Diffie - Regular Joe
DYEAR=1992
DGENRE=Country
TTITLE0=Startin' Over Blues
TTITLE1=I Just Don't Know
TTITLE2=Next Thing Smokin'
TTITLE3=Ain't That Bad Enough
TTITLE4=Ships That Don't Come In
TTITLE5=Just A Regular Joe
TTITLE6=Is It Cold In Here
TTITLE7=Back To Back Heartaches
TTITLE8=You Made Me What I Am
TTITLE9=Goodnight Sweetheart
EXTD=
EXTT0=
EXTT1=
EXTT2=
EXTT3=
EXTT4=
EXTT5=
EXTT6=
EXTT7=
EXTT8=
EXTT9=
PLAYORDER=
